# xmcd CD database file
#
# Track frame offsets:
#	150
#	48994
#	68650
#	250808
#
# Disc length: 4180 seconds
#
# Revision: 1
# Processed by: cddbd v1.5.2PL0 Copyright (c) Steve Scherf et al.
# Submitted via: CDex 1.51
#
DISCID=2d105204
DTITLE=Centerpointe Research Institute (Holosync) - The Inside Secrets of How to be Happy, Peaceful, and Successful... All The Time [CD3]
DYEAR=2003
DGENRE=New Age
TTITLE0=1. Questions and Answers
TTITLE1=2. The Nine Principles
TTITLE2=3. Principle #1: Letting Whatever Happens Be Ok
TTITLE3=4. Principle #2: Threshold
EXTD=YEAR: 2003
EXTT0=
EXTT1=
EXTT2=
EXTT3=
PLAYORDER=
